<?xml version="1.0" encoding="UTF-8" standalone="no"?>
<svg
   version="1.0"
   width="640"
   height="480"
   viewBox="0 0 1013.3333 760"
   id="svg205"
   sodipodi:docname="efate.svg"
   inkscape:version="1.2 (dc2aeda, 2022-05-15)"
   xmlns:inkscape="http://www.inkscape.org/namespaces/inkscape"
   xmlns:sodipodi="http://sodipodi.sourceforge.net/DTD/sodipodi-0.dtd"
   xmlns:xlink="http://www.w3.org/1999/xlink"
   xmlns="http://www.w3.org/2000/svg"
   xmlns:svg="http://www.w3.org/2000/svg">
  <defs
     id="defs209" />
  <sodipodi:namedview
     id="namedview207"
     pagecolor="#505050"
     bordercolor="#eeeeee"
     borderopacity="1"
     inkscape:showpageshadow="0"
     inkscape:pageopacity="0"
     inkscape:pagecheckerboard="0"
     inkscape:deskcolor="#505050"
     showgrid="false"
     inkscape:zoom="0.65555556"
     inkscape:cx="70.169492"
     inkscape:cy="180"
     inkscape:window-width="1309"
     inkscape:window-height="430"
     inkscape:window-x="0"
     inkscape:window-y="25"
     inkscape:window-maximized="0"
     inkscape:current-layer="svg205" />
  <rect
     width="1013.3333"
     height="380"
     fill="#d21034"
     id="rect182"
     x="0"
     y="0"
     style="stroke-width:1.19257" />
  <rect
     y="380"
     width="1013.3333"
     height="380"
     fill="#009543"
     id="rect184"
     x="0"
     style="stroke-width:1.19257" />
  <path
     d="M 0,0 589.66752,380 0,760 Z"
     fill="#000000"
     id="path186"
     style="stroke-width:1.19257" />
  <rect
     y="312"
     width="1013.3333"
     height="136"
     fill="#000000"
     id="rect188"
     x="0"
     style="stroke-width:1.19257" />
  <path
     d="M 0,54.002667 505.86773,379.99933 0,705.996 Z"
     fill="#fdce12"
     id="path190"
     style="stroke-width:1.19257" />
  <rect
     y="360"
     width="1013.3333"
     height="40"
     fill="#fdce12"
     id="rect192"
     x="0"
     style="stroke-width:1.19257" />
  <path
     d="M 0,99.006307 436.03385,380 0,660.99333 Z"
     fill="#000000"
     id="path194"
     style="stroke-width:1.19257" />
  <path
     d="m 123.17973,452.69867 c 0,0 0,27.46 0,43.30133 30.13654,0 89.28,-28.86667 89.28,-121.808 0,-92.94133 -63.08693,-110.192 -81.95733,-110.192 -18.86933,0 -77.169067,16.89867 -77.169067,92.94133 0,76.04267 57.173337,83.084 68.438397,83.084 11.26507,0 53.51147,-12.67466 48.72427,-69.70666 0,16.19466 -14.64533,50.344 -45.34507,50.344 -30.698663,0 -49.849597,-28.51734 -49.849597,-56.68 0,-28.16534 18.587734,-65.83467 50.975997,-65.83467 32.38827,0 56.04587,35.908 56.04587,72.17067 0,36.26133 -22.81173,82.38 -59.14347,82.38 z"
     fill="#fdce12"
     id="path196"
     style="stroke-width:1.19257" />
  <g
     id="frond"
     fill="#fdce12"
     transform="scale(1.0666667,1.3333333)">
    <path
       d="m 90.728,297.245 1.683,1.089 c 0,0 13.367,-30.496 49.309,-52.18 -4.555,2.475 -28.615,14.456 -50.992,51.091 z"
       stroke="#fdce12"
       id="path198" />
    <path
       d="m 94.193,291.997 c 0,0 -4.158,-8.515 -0.495,-12.277 3.664,-3.763 1.981,10 1.981,10 l 1.584,-2.277 c 0,0 -2.476,-10.397 0.297,-12.575 2.772,-2.178 1.386,10 1.386,10 l 1.683,-2.178 c 0,0 -1.782,-10.099 0.891,-11.981 2.674,-1.881 0.991,9.506 0.991,9.506 l 1.98,-2.278 c 0,0 -1.485,-9.604 1.782,-11.881 3.268,-2.278 0.396,9.109 0.396,9.109 l 2.178,-2.376 c 0,0 -0.99,-8.813 1.783,-10.793 2.772,-1.98 0.396,8.317 0.396,8.317 l 1.98,-2.079 c 0,0 -0.594,-8.218 2.079,-10.099 2.674,-1.882 0.198,7.822 0.198,7.822 l 2.08,-1.981 c 0,0 -0.495,-8.218 2.871,-9.802 3.366,-1.584 -0.594,7.723 -0.594,7.723 l 2.277,-1.98 c 0,0 0.693,-9.604 3.565,-10.496 2.871,-0.891 -1.287,8.516 -1.287,8.516 l 2.079,-1.684 c 0,0 1.089,-8.218 4.257,-9.208 3.169,-0.99 -1.98,7.525 -1.98,7.525 l 2.079,-1.584 c 0,0 2.278,-8.218 5.248,-9.109 2.971,-0.891 -3.069,7.723 -3.069,7.723 l 1.98,-1.386 c 0,0 3.267,-7.427 5.941,-7.922 2.673,-0.495 -2.971,6.139 -2.971,6.139 l 2.476,-1.485 c 0,0 4.257,-7.723 5.743,-5.347 1.485,2.377 -5.941,5.842 -5.941,5.842 l -2.476,1.386 c 0,0 9.011,-4.257 10.1,-2.079 1.089,2.178 -12.377,3.565 -12.377,3.565 l -2.178,1.485 c 0,0 9.01,-2.476 7.921,-0.198 -1.089,2.277 -10,1.782 -10,1.782 l -2.08,1.485 c 0,0 9.01,-2.178 7.822,-0.099 -1.188,2.079 -10,1.881 -10,1.881 l -2.178,1.783 c 0,0 8.812,-2.278 7.525,0.396 -1.288,2.673 -11.288,2.574 -11.288,2.574 l -2.475,2.277 c 0,0 9.307,-3.168 8.515,-0.693 -0.792,2.476 -11.387,3.763 -11.387,3.763 l -2.376,2.376 c 0,0 10,-3.366 7.03,-0.297 -2.97,3.07 -10.198,3.862 -10.198,3.862 l -2.872,3.465 c 0,0 9.902,-5.941 8.515,-2.574 -1.386,3.366 -11.089,5.644 -11.089,5.644 l -1.98,2.376 c 0,0 8.911,-5.149 8.02,-2.277 -0.891,2.871 -10.397,5.94 -10.397,5.94 l -1.584,2.179 c 0,0 10.495,-6.238 9.604,-3.07 -0.891,3.169 -10.891,5.446 -10.891,5.446 l -1.287,1.98 c 0,0 9.703,-5.544 9.802,-2.871 0.099,2.673 -11.387,5.347 -11.387,5.347 z"
       id="path200" />
  </g>
  <use
     xlink:href="#frond"
     transform="matrix(-1,0,0,1,254.4,0)"
     id="use203" />
</svg>
