<?xml version="1.0" encoding="UTF-8" standalone="no"?>
<svg
   id="svg148"
   width="640"
   height="480"
   version="1.0"
   sodipodi:docname="marquesas.svg"
   inkscape:version="1.2 (dc2aeda, 2022-05-15)"
   xmlns:inkscape="http://www.inkscape.org/namespaces/inkscape"
   xmlns:sodipodi="http://sodipodi.sourceforge.net/DTD/sodipodi-0.dtd"
   xmlns="http://www.w3.org/2000/svg"
   xmlns:svg="http://www.w3.org/2000/svg">
  <defs
     id="defs193" />
  <sodipodi:namedview
     id="namedview191"
     pagecolor="#505050"
     bordercolor="#eeeeee"
     borderopacity="1"
     inkscape:showpageshadow="0"
     inkscape:pageopacity="0"
     inkscape:pagecheckerboard="0"
     inkscape:deskcolor="#505050"
     showgrid="false"
     inkscape:zoom="0.236"
     inkscape:cx="-525.42373"
     inkscape:cy="500"
     inkscape:window-width="1309"
     inkscape:window-height="430"
     inkscape:window-x="0"
     inkscape:window-y="25"
     inkscape:window-maximized="0"
     inkscape:current-layer="svg148" />
  <g
     id="g134"
     transform="matrix(0.42666667,0,0,0.48,0.00128,0)">
    <path
       id="path132"
       transform="translate(115.497,332.518)"
       d="m 1384.5,167.482 h -750 l -750,500 h 1500 z"
       fill="#ee252b"
       fill-rule="evenodd" />
  </g>
  <g
     id="g138"
     transform="matrix(0.42666667,0,0,0.47998512,0.00128,0)">
    <path
       id="path136"
       transform="translate(115.497,332.518)"
       d="m 1384.5,167.497 h -750 l -750,-500.015 h 1500 z"
       fill="#fece00"
       fill-rule="evenodd" />
  </g>
  <g
     id="g142"
     transform="matrix(0.42666667,0,0,0.48,0.00128,0)">
    <path
       id="path140"
       transform="translate(115.497,332.518)"
       d="m -115.497,-332.518 v 1000 l 749.132,-500 z"
       fill="#ffffff"
       fill-rule="evenodd" />
  </g>
  <g
     id="g146"
     transform="matrix(0.42910293,0,0,0.4827408,-0.64893867,-1.8538416)">
    <path
       id="path144"
       transform="translate(115.497,332.518)"
       d="m 125.329,254.718 c -3.58791,0.10261 -15.9918,-0.30789 -21.9375,3.59205 -5.94565,3.89995 -10.5588,7.49216 -15.1718,15.6 -4.61302,8.10778 -7.89313,9.23664 -9.53336,8.92874 -1.64014,-0.30789 -7.17596,-1.74452 -6.97094,-8.82599 0.205023,-7.08149 3.79304,-9.95512 5.84327,-10.0578 2.05023,-0.10261 4.10033,0.61559 2.0501,2.36031 -2.05023,1.74471 -3.07515,3.69486 -3.07515,6.26061 0,2.56576 0.922539,6.05524 2.46021,6.15787 1.53767,0.10261 2.87017,-1.74471 3.48524,-5.74728 -0.205023,-12.4183 0.820028,-12.4186 -1.12767,-13.2396 -1.94772,-0.82105 -6.04816,-0.7183 -9.32851,3.6948 -3.28039,4.4131 -4.30525,10.9816 -1.94748,15.5999 1.84519,4.00258 4.1002,5.84961 4.1002,5.84961 0,0 -3.58775,3.79743 -4.9204,6.56845 -1.33265,2.77101 -0.102815,11.084 1.22988,12.9314 1.33265,1.84734 4.71592,4.72099 7.1762,5.02888 2.46028,0.30789 3.89538,0.30795 3.89538,-4.6183 0,-4.92625 0.512492,-11.597 -0.410112,-11.6996 -0.922582,-0.1026 -3.48537,0.61578 -3.58788,2.87364 -0.10249,2.25786 2.01627,4.4155 2.15274,6.05511 0.205023,2.46313 -1.74263,3.79713 -3.89538,2.36031 -3.14668,-2.10021 -4.10068,-5.43951 -3.79314,-8.72368 0.307513,-3.28416 2.66526,-8.41554 6.45819,-8.51817 3.79291,-0.10261 5.94587,1.95002 11.6865,8.3131 5.74067,6.36307 10.148702,12.9316 25.935502,16.3184 15.7867,3.3868 46.0519,5.42361 67.5079,5.13333 21.456,-0.29028 69.791,-2.21049 80.2331,-8.83916 4.59613,-2.91763 9.31824,-6.88058 12.8023,-10.6602 5.03453,-5.46162 8.37597,-10.4288 12.4957,-10.3681 5.12501,0.0754 8.50837,5.85009 8.20084,9.85267 -0.30754,4.00258 -3.58796,6.77339 -5.43316,7.38918 -1.84521,0.61578 -3.5879,-0.61559 -2.15273,-3.79713 1.43515,-3.18154 1.94784,-7.28668 -0.61495,-7.49193 -2.56278,-0.20527 -2.25549,0.41051 -2.35801,2.87363 -0.0514,1.2335 0.25609,4.57787 0.48814,7.69914 0.23134,3.1115 0.38522,6.00189 1.6646,5.95067 2.56278,-0.10261 7.84662,-2.10476 10.0461,-7.38961 1.02511,-2.46312 1.84532,-10.4681 -0.61494,-13.1365 -2.46028,-2.66838 -4.10022,-3.79713 -4.10022,-3.79713 0,0 5.43274,-5.43326 5.43274,-13.0341 -0.20503,-4.31046 -1.0248,-8.51835 -5.84284,-11.1867 -4.81803,-2.66838 -7.41622,-1.72838 -7.89336,0.10271 -0.61507,2.3605 -1.12793,6.97872 0.10217,12.1102 1.26341,5.27034 3.48544,7.18392 4.71557,4.51553 1.53692,-3.33385 1.95692,-7.60716 -0.30748,-9.23657 -3.28036,-2.3605 -2.66517,-4.72111 0.1026,-4.41322 2.7678,0.30789 6.86819,3.18152 6.76568,8.62092 -0.10249,5.43941 -3.38269,10.9817 -6.66305,10.6738 -3.28037,-0.30788 -7.27829,-4.6184 -10.7637,-10.4683 -3.48539,-5.84991 -11.4816,-15.4971 -22.9629,-17.2418 -11.4813,-1.74471 -70.7326,0.61566 -75.2431,0.61566 -4.51048,0 -52.7933,-1.64219 -56.3812,-1.53958 z m 109.138,16.0067 c 9.50933,0.007 22.0891,0.2987 27.9194,4.51936 6.66328,4.82362 5.74065,9.33934 5.74065,9.33934 0,0 -12.1996,1.36214 -36.845,1.50051 -25.8525,0.14514 -72.7472,-0.29028 -85.3889,0 -13.3372,0.30625 -37.3692,-0.67865 -45.5772,-1.50051 0,0 -0.717411,-4.72105 5.53577,-9.03151 6.25319,-4.31047 11.1736,-5.23407 32.906,-4.6183 21.7324,0.61579 43.5673,0.71854 46.3351,0.82117 2.7678,0.10261 35.8792,-1.02624 45.5153,-1.02624 1.20452,0 2.50043,-0.004 3.85889,-0.004 z m 33.638,17.6813 c 0,0 0.72505,5.66073 -4.92889,7.54756 -5.65395,1.88683 -20.8762,6.24108 -51.4655,6.24108 -30.5893,0 -73.9361,-0.14533 -83.7942,-1.30646 -9.85818,-1.16113 -28.1247,-2.46737 -27.2548,-12.337 20.4412,1.16113 81.1846,0.87084 84.519,0.87084 3.3344,0 36.968,0.72577 55.5245,0.14521 18.5565,-0.58057 27.3999,-1.16127 27.3999,-1.16127 z m 61.9173,-35.2273 0.9226,12.9314 c 0,0 -4.408,0.92368 -5.33058,-3.38679 -0.9226,-4.31047 -1.33265,-5.74729 -1.33265,-5.74729 0,0 -4.20297,0 -3.89544,3.28416 0.30754,3.28417 -0.11695,11.6565 4.81805,12.8288 3.60219,0.85565 4.19353,-0.12024 6.15067,-0.41052 1.20317,2.82971 0.88413,6.269 1.23014,9.44198 0,0 -6.35572,3.59205 -7.07328,6.46569 -0.71758,2.87365 -0.41005,7.59464 0.61505,7.90253 1.02511,0.30789 1.53767,0.30789 2.05023,-1.84734 0.51256,-2.15523 0.61507,-5.64467 3.17786,-6.67096 2.56279,-1.0263 2.6653,-0.61578 2.6653,-0.61578 0.35878,0.3592 1.17887,6.97884 0.30753,8.21041 0,0 -6.04818,4.10521 -7.68836,4.31047 -1.64017,0.20526 -1.84519,0.30789 -1.84519,0.30789 0,0 -2.25525,-8.51831 -1.02512,-11.6998 1.23014,-3.18153 6.56072,-5.64465 7.17579,-7.79989 0.61507,-2.15524 0,-4.31047 -2.46028,-3.89994 -2.46025,0.41052 -6.61198,1.89865 -7.38081,6.97884 -0.89715,5.9281 -0.10249,17.3445 -0.10249,17.755 0,0.4105 0.10249,1.74471 -2.97283,2.36049 -3.07533,0.61578 -8.97125,1.95104 -9.84109,1.69704 -0.90502,-0.17519 -2.76779,-10.6259 -1.84519,-11.9601 0.92258,-1.33418 2.46026,-2.36049 5.94565,-1.43681 3.48539,0.92366 3.58791,4.20783 3.79293,6.67095 0.20502,2.46313 2.76779,3.38681 3.07532,0.41052 0.30754,-2.97627 0.8201,-12.1104 -4.61299,-12.7261 -5.43312,-0.61578 -9.43105,0.23123 -9.53356,-2.46313 -0.0625,-1.64408 -0.50374,-6.00742 -0.20502,-6.36306 1.0424,-1.24104 4.81802,-0.41052 6.76574,-3.38681 1.94772,-2.97627 1.78248,-8.54074 1.53767,-10.5709 -0.25264,-2.09512 -2.61961,-4.18171 -3.39426,0.98078 -0.54252,3.61571 -1.34238,5.01069 -3.78153,5.0744 -1.66819,0.0436 -1.74269,-0.30789 -1.74269,-0.30789 l -0.82009,-8.72357 c 0,0 3.89541,-1.64207 7.68834,-1.84734 3.79293,-0.20526 3.99795,1.94997 3.99795,3.28417 0,1.33419 1.12763,10.7762 -0.61507,12.5209 -1.74269,1.74471 -5.94567,2.66839 -5.94567,4.00257 0,1.3342 -0.82009,2.87365 2.46028,2.77102 3.28037,-0.1026 8.40593,-1.33419 8.50844,-8.10778 0.11341,-7.49395 -3.58788,-16.1129 0.41005,-17.3445 3.99795,-1.23156 10.1486,-2.87364 10.1486,-2.87364 z m -291.213,0 -0.922604,12.9314 c 0,0 4.408,0.92368 5.33058,-3.38679 0.922604,-4.31047 1.33265,-5.74729 1.33265,-5.74729 0,0 4.20298,0 3.89544,3.28416 -0.307534,3.28417 0.116952,11.6565 -4.81804,12.8288 -3.60219,0.85565 -4.19353,-0.12024 -6.15067,-0.41052 -1.20317,2.82971 -0.884127,6.269 -1.23014,9.44198 0,0 6.35572,3.59205 7.07328,6.46569 0.717581,2.87365 0.410047,7.59464 -0.615047,7.90253 -1.02512,0.30789 -1.53767,0.30789 -2.05023,-1.84734 -0.51256,-2.15523 -0.615069,-5.64467 -3.17786,-6.67096 -2.56279,-1.0263 -2.6653,-0.61578 -2.6653,-0.61578 -0.358779,0.3592 -1.17887,6.97884 -0.307534,8.21041 0,0 6.04818,4.10521 7.68837,4.31047 1.64016,0.20526 1.84519,0.30789 1.84519,0.30789 0,0 2.25526,-8.51831 1.02512,-11.6998 -1.23014,-3.18153 -6.56072,-5.64465 -7.17579,-7.79989 -0.61507,-2.15524 0,-4.31047 2.46028,-3.89994 2.46026,0.41052 6.61199,1.89865 7.38081,6.97884 0.897156,5.9281 0.102512,17.3445 0.102512,17.755 0,0.4105 -0.102512,1.74471 2.97284,2.36049 3.07532,0.61578 8.97125,1.95104 9.84109,1.69704 0.905016,-0.17519 2.76779,-10.6259 1.84519,-11.9601 -0.922583,-1.33418 -2.46026,-2.36049 -5.94565,-1.43681 -3.48539,0.92366 -3.5879,4.20783 -3.79293,6.67095 -0.205023,2.46313 -2.76779,3.38681 -3.07533,0.41052 -0.307535,-2.97627 -0.820092,-12.1104 4.613,-12.7261 5.43311,-0.61578 9.43104,0.23123 9.53356,-2.46313 0.06254,-1.64408 0.503742,-6.00742 0.205024,-6.36306 -1.0424,-1.24104 -4.81802,-0.41052 -6.76574,-3.38681 -1.94772,-2.97627 -1.78248,-8.54074 -1.53767,-10.5709 0.252642,-2.09512 2.61962,-4.18171 3.39426,0.98078 0.542523,3.61571 1.34238,5.01069 3.78153,5.0744 1.6682,0.0436 1.7427,-0.30789 1.7427,-0.30789 l 0.820093,-8.72357 c 0,0 -3.89542,-1.64207 -7.68835,-1.84734 -3.79293,-0.20526 -3.99795,1.94997 -3.99795,3.28417 0,1.33419 -1.12763,10.7762 0.615069,12.5209 1.742699,1.7447 5.94567,2.66839 5.94567,4.00257 0,1.3342 0.820093,2.87365 -2.46028,2.77102 -3.28037,-0.1026 -8.40593,-1.33419 -8.50844,-8.10778 -0.113412,-7.49395 3.58788,-16.1129 -0.410046,-17.3445 -3.99795,-1.23156 -10.1486,-2.87364 -10.1486,-2.87364 z m 314.179,-46.0732 c 2.40395,-0.11576 4.40593,1.50538 6.13801,2.92501 1.28215,1.05087 2.18499,2.53453 2.72825,4.04764 0.49408,1.37613 1.03174,2.58292 1.34629,4.00961 0.62456,2.83275 0.98983,5.67554 0.99257,8.55536 0.003,2.99701 -0.25143,6.07564 -1.25275,8.91177 -0.63155,1.78884 -1.11314,3.55714 -1.97629,5.27768 -1.20641,2.40473 -2.98661,4.6483 -5.39711,5.68996 -1.94846,0.84199 -4.43256,0.56089 -6.26142,-0.4437 -2.5095,-1.37846 -4.11323,-3.99925 -5.34919,-6.50688 -0.9667,-1.96133 -2.19749,-5.1328 -2.62476,-7.17264 -0.28615,-1.36604 -0.71463,-2.60427 -0.58176,-4.09597 0.22283,-2.50138 0.25549,-4.9537 0.77347,-7.00967 0.44675,-1.77321 0.65034,-3.59064 1.44574,-5.18469 1.76604,-3.53931 4.1741,-7.2271 7.95784,-8.86507 0.63611,-0.27536 1.37345,-0.10532 2.06111,-0.13841 z m -4.56925,7.56411 c -1.26948,1.13812 -1.99979,2.75497 -2.69982,4.28372 -0.47298,1.03288 -0.68875,2.09563 -0.94958,3.18656 -0.8605,3.59902 -0.21155,7.40223 0.82112,10.9396 0.80113,2.7443 1.70954,5.74529 3.86691,7.67026 0.78747,0.70264 1.90394,1.39603 2.9212,1.21603 0.95795,-0.1695 1.57747,-0.79728 2.29607,-1.56037 0.66189,-0.70287 1.30712,-1.2118 1.70112,-2.05525 1.2826,-2.74559 2.56698,-5.58617 2.99676,-8.58842 0.44184,-3.08648 0.64695,-6.34287 -0.2164,-9.37968 -0.95101,-3.34518 -3.40388,-6.51819 -6.73007,-7.57812 -1.77659,-0.56614 -2.49439,0.5093 -4.00731,1.86565 z m -332.621,-7.56411 c -2.40395,-0.11576 -4.40594,1.50538 -6.13801,2.92501 -1.28214,1.05087 -2.18499,2.53453 -2.72825,4.04764 -0.494079,1.37613 -1.03174,2.58292 -1.34629,4.00961 -0.624558,2.83275 -0.989831,5.67554 -0.992566,8.55536 -0.00282,2.99701 0.251426,6.07564 1.25274,8.91177 0.63155,1.78884 1.11314,3.55714 1.9763,5.27768 1.20641,2.40473 2.9866,4.6483 5.39711,5.68996 1.94846,0.84199 4.43256,0.56089 6.26141,-0.4437 2.5095,-1.37846 4.11323,-3.99925 5.34919,-6.50688 0.966706,-1.96133 2.1975,-5.1328 2.62476,-7.17264 0.286147,-1.36604 0.714628,-2.60427 0.581761,-4.09597 -0.222829,-2.50138 -0.255487,-4.9537 -0.773473,-7.00967 -0.446743,-1.77321 -0.650333,-3.59064 -1.44574,-5.18469 -1.76604,-3.53931 -4.1741,-7.2271 -7.95784,-8.86507 -0.636111,-0.27536 -1.37345,-0.10532 -2.06111,-0.13841 z m 4.56925,7.56411 c 1.26948,1.13812 1.99979,2.75497 2.69983,4.28372 0.472974,1.03288 0.688745,2.09563 0.949573,3.18656 0.860502,3.59902 0.211559,7.40223 -0.821113,10.9396 -0.801136,2.7443 -1.70954,5.74529 -3.86691,7.67026 -0.787478,0.70264 -1.90394,1.39603 -2.9212,1.21603 -0.957954,-0.1695 -1.57748,-0.79728 -2.29608,-1.56037 -0.661884,-0.70287 -1.30712,-1.2118 -1.70111,-2.05525 -1.2826,-2.74559 -2.56698,-5.58617 -2.99676,-8.58842 -0.441836,-3.08648 -0.646946,-6.34287 0.216401,-9.37968 0.951006,-3.34518 3.40388,-6.51819 6.73007,-7.57812 1.77659,-0.56614 2.49439,0.5093 4.00731,1.86565 z m 88.0064,-194.32 c 0.30666,0.854444 0.27071,-1.04836 0,0 z m -0.1548,0.325237 c -7.75056,-0.01 -15.6451,0.937757 -22.795,4.09434 -5.57714,2.06999 -11.1747,4.459 -15.5802,8.55044 -7.65219,6.54585 -14.286,14.5322 -18.0591,23.9493 -2.3749,5.40088 -4.8811,10.7714 -6.17864,16.5607 -2.28481,9.17676 -3.10088,18.6046 -4.43527,27.940203 -0.889577,4.18253 -0.945013,8.47404 -1.73885,12.6741 -0.603582,5.80961 -0.82222,11.6553 -1.57018,17.4485 -0.888622,9.79871 -1.77924,19.6159 -3.4647,29.3212 -0.843718,4.50088 -1.11269,9.12481 -2.38814,13.5344 -0.862631,3.20084 -3.3768,5.50658 -5.99683,7.3381 -3.90132,2.96878 -9.09871,4.97783 -13.9762,3.40309 -6.36888,-1.92455 -10.5935,-7.80448 -12.9506,-13.7394 -3.64462,-9.00683 -4.01287,-18.8726 -4.48586,-28.4548 -0.325101,-7.28956 0.160271,-14.5888 1.31615,-21.7901 1.01148,-7.88917 2.70877,-16.232 8.02044,-22.437603 3.59894,-3.79556 9.1634,-5.38887 14.2739,-4.83738 2.74208,0.446066 4.47772,2.85414 5.52058,5.23537 2.94018,5.715383 4.74717,12.007203 5.04456,18.441803 0.460574,6.06853 -0.0096,12.1578 0.842544,18.1698 0.149458,3.15302 -0.687138,6.24335 -0.777598,9.38775 -0.514708,7.03831 -1.54849,14.6321 -6.32929,20.1686 -2.22594,2.44898 -5.5267,4.85704 -9.01001,3.88417 -2.83432,-0.8509 -4.04073,-3.87742 -5.40984,-6.21899 -4.01719,-8.45061 -5.37544,-18.0097 -4.89157,-27.3034 0.392588,-5.154 1.07795,-10.4014 3.05602,-15.2096 1.56653,-3.50441 4.82352,-6.95479 8.93034,-6.82671 3.44922,0.46193 5.05939,4.0203 5.9988,6.9694 1.59926,5.38471 1.58401,11.0747 1.82838,16.64 -0.02779,4.91377 -0.501809,10.0076 -2.58869,14.507 -0.772691,1.26844 -2.76597,1.39002 -3.53998,0.0437 -1.90792,-2.46002 -1.72461,-5.76424 -2.53367,-8.64017 -0.839418,-4.35047 -0.327794,-8.84244 -0.739968,-13.1966 -0.08877,-1.30048 -1.20814,-3.15707 -2.72484,-2.66348 -1.59198,1.546 -0.912746,4.01495 -1.17798,5.99752 -0.282651,6.42863 -0.307252,13.0426 1.89218,19.1829 0.869361,3.0002 1.60325,6.82751 4.79826,8.201 2.69049,0.72391 5.13405,-1.67391 6.13886,-3.95847 2.89668,-6.31224 3.81946,-13.2676 4.37263,-20.1178 0.42353,-8.5261 -1.03322,-17.3637 -4.95916,-24.9977 -1.75679,-3.09765 -4.58499,-6.42578 -8.45952,-6.36677 -3.74003,0.0274 -6.84628,2.57331 -8.75457,5.67111 -3.28951,4.93113 -5.10169,10.7733 -5.43628,16.6535 -0.900456,8.65608 -0.700384,17.4286 0.259069,26.0491 0.856811,6.35688 3.13589,12.382 5.62107,18.257 1.65905,3.73066 4.92249,7.31398 9.28104,7.41344 4.8008,0.18197 8.90378,-3.18293 11.6093,-6.81301 4.17179,-5.58944 5.06198,-12.6997 6.20854,-19.3902 1.19637,-7.83237 0.888252,-15.7845 1.03467,-23.7016 0.121272,-8.33963 -0.806761,-16.6727 -2.88559,-24.7622 -1.78241,-7.174123 -3.33125,-15.016003 -8.75174,-20.425903 -2.12423,-2.04308 -4.78515,-4.3406 -7.9629,-3.71816 -3.08054,0.560511 -5.75732,2.38922 -8.42095,3.97928 -3.38933,2.0975 -5.86483,5.32661 -7.61854,8.86039 -4.90088,9.089713 -6.7789,19.394203 -8.32226,29.515603 -1.44941,7.52341 -2.82833,15.0058 -3.16075,22.6695 -0.640866,11.8258 -0.282976,23.7198 -0.712001,35.5718 -0.215771,12.7118 0.727874,25.4565 3.64649,37.855 2.34558,11.1204 4.12096,22.6715 9.47994,32.7966 2.88185,5.72273 6.3654,11.4339 11.7585,15.0413 3.43447,1.76836 7.43651,0.73599 10.9528,-0.0267 4.37929,-1.04239 8.19895,-3.83896 10.9596,-7.34205 2.65742,-4.05646 3.27162,-9.00531 3.9925,-13.6935 1.01854,-4.84703 1.65664,-9.75174 1.539,-14.7092 0.07309,-6.65313 -0.644927,-13.2287 -2.63362,-19.5805 -0.784872,-3.83653 -1.52962,-7.93035 -0.483461,-11.7871 1.24642,-4.18557 6.49108,-5.71206 10.3068,-4.35347 3.3509,1.29055 6.08104,3.77304 8.82588,6.02169 9.94445,8.57086 16.7634,20.24 27.3165,28.1522 5.31288,3.47608 12.2011,3.30312 18.0841,1.66964 5.963345,-1.68906 10.879695,-5.75509 15.502495,-9.66514 4.71106,-4.39807 7.88836,-10.1474 12.4507,-14.6926 3.98291,-4.27421 9.26936,-7.4116 15.106,-8.21035 4.20914,-0.53538 9.05691,-0.96854 12.6615,1.74508 4.64852,3.8885 8.74516,8.89081 9.92015,14.9932 0.71239,3.41045 1.29667,6.86026 1.72821,10.3142 0.1259,1.29017 -0.59162,3.5017 -2.25708,2.93818 -2.0973,-1.05169 -2.80531,-3.58167 -4.23559,-5.28579 -3.08346,-4.51554 -7.141,-9.19735 -12.802,-10.207 -4.36012,-0.76655 -8.69953,1.35628 -11.5726,4.53489 -4.27088,4.33508 -6.429,10.0818 -8.39273,15.7053 -0.60282,1.67532 -2.31088,3.59242 -1.09267,5.39572 1.5666,1.02958 3.64825,0.68765 5.43483,0.81029 28.6592,1.59267 57.3679,0.32912 86.0422,-0.18647 7.42278,-0.1756 14.8633,-0.10315 22.2774,-0.21155 1.75636,-0.73145 1.59072,-3.20383 1.19214,-4.75415 -2.12091,-7.15039 -4.95686,-14.8359 -11.3163,-19.2994 -3.32108,-2.47008 -8.0707,-3.28184 -11.7472,-1.17253 -3.88941,2.22175 -6.85757,5.80382 -9.34454,9.4974 -1.2307,1.63623 -1.99343,3.69617 -3.53153,5.06593 -1.03435,0.79214 -2.84236,0.34125 -2.92418,-1.1099 -0.78932,-4.05871 0.53603,-8.14449 1.48285,-12.0599 1.14137,-4.37563 3.3122,-8.4652 6.5038,-11.6888 2.09384,-2.13973 4.13315,-4.79542 7.29411,-5.27217 8.4935,-1.5293 17.3708,1.91817 23.338,8.00297 3.85792,3.61256 6.64733,8.13447 9.84958,12.2845 5.74862,6.65823 13.4873,11.956 22.3078,13.0954 5.61067,0.83267 11.9036,0.034 16.315,-3.75608 8.43157,-6.61355 13.9529,-16.0698 21.7886,-23.2984 4.20368,-4.20667 8.79612,-8.86897 14.9279,-9.86524 5.56346,-0.49648 9.98438,5.76123 8.57971,10.9515 -1.78856,7.20801 -3.82803,14.3721 -3.9702,21.8527 -0.41102,6.16807 0.69176,12.2635 1.67766,18.3438 0.57772,3.45123 0.32825,7.07783 2.10443,10.22 1.82979,4.02413 5.0306,7.47411 9.10881,9.30334 3.88151,1.68665 8.29339,2.97997 12.5276,2.00441 3.6085,-1.14157 6.37141,-4.03794 8.71357,-6.87584 5.02404,-6.62025 7.89293,-14.6023 10.3346,-22.4478 1.80554,-6.19688 2.90569,-12.5672 4.51437,-18.8154 1.21921,-5.22345 1.64716,-10.5992 2.61724,-15.8646 1.4332,-11.6511 0.55431,-23.4894 0.74,-35.232 -0.015,-11.664 0.15668,-23.3681 -1.72819,-34.9011 -1.66806,-10.9887 -3.54181,-22.0146 -6.83905,-32.6244 -1.73529,-4.787763 -3.94733,-9.616703 -7.34501,-13.503703 -2.74783,-2.98319 -6.58995,-4.68415 -10.3591,-6.05299 -1.94809,-0.793508 -4.25277,-0.792162 -6.11299,0.407183 -5.56521,3.40143 -8.87156,9.50636 -10.3724,15.738 -2.33904,7.29829 -4.1524,14.815 -4.54403,22.5021 -0.50758,8.45459 -0.34759,16.9659 -0.2971,25.4476 0.37315,7.45017 1.78176,14.871 4.29806,21.9008 2.13952,5.3283 6.20292,10.4525 11.9736,11.9289 3.53918,0.85812 7.31911,-0.71224 9.46126,-3.60273 3.34237,-4.23107 4.80995,-9.58136 6.33342,-14.6619 2.67609,-9.67272 2.80667,-19.8028 2.38826,-29.761 -0.40564,-6.50801 -1.39053,-13.2762 -4.95424,-18.8939 -1.75219,-2.88001 -3.86069,-6.09872 -7.39956,-6.89691 -3.17392,-1.01498 -6.69034,0.67562 -8.74653,3.20929 -3.48077,4.29088 -4.98734,9.81764 -6.10662,15.101 -1.85895,10.1766 -0.80368,20.7662 2.28377,30.5804 1.03782,2.86109 2.94666,6.09464 6.17788,6.70814 2.5808,0.22761 4.26203,-2.17034 4.79049,-4.4134 2.35007,-7.03645 3.29531,-14.5026 3.34271,-21.8922 -0.12345,-2.04034 -0.0242,-4.178 -0.68854,-6.1235 -1.11812,-1.27599 -2.9216,-0.007 -3.21044,1.35317 -0.82822,2.66523 0.13265,5.49111 -0.6216,8.18902 -0.57769,2.48032 -1.06386,4.93797 -0.9094,7.50095 -0.19137,2.46141 -0.86072,5.06199 -2.46149,6.97987 -1.46787,1.06108 -3.24886,-0.42025 -3.61037,-1.91151 -1.87814,-4.50697 -1.40125,-9.51745 -1.66111,-14.2854 0.0147,-5.94283 0.30307,-12.0171 2.13314,-17.7102 0.9834,-2.75918 3.60178,-5.42691 6.75889,-4.85691 4.05855,0.70154 6.54834,4.61586 7.95741,8.17255 1.9294,5.30953 2.12063,11.0427 2.52577,16.6208 0.38203,9.73581 -1.63426,19.7358 -6.73921,28.1074 -1.46183,2.42188 -4.54478,3.55779 -7.22414,2.66092 -4.91001,-1.59315 -7.81336,-6.44379 -9.4918,-11.047 -2.54727,-7.5735 -2.66362,-15.686 -2.77903,-23.5976 0.0983,-6.87719 0.24208,-13.775 0.95666,-20.6186 0.91192,-6.45761 3.04439,-12.9156 7.01252,-18.1492 1.48782,-1.71911 3.92966,-2.16156 6.05289,-1.56497 3.82928,0.403228 8.08791,0.977783 10.8395,4.00976 3.67326,3.92755 5.56269,9.15404 7.0193,14.2415 2.71858,10.5678 2.6948,21.5902 2.63173,32.4287 -0.0923,8.17173 -0.48087,16.5147 -3.41437,24.2389 -2.15619,5.78295 -5.24782,11.814 -10.9699,14.7538 -3.78014,2.22721 -8.51998,2.13556 -12.4472,0.34452 -6.21903,-2.42433 -10.8911,-8.30221 -11.7694,-14.936 -1.13862,-6.94885 -1.2996,-13.994 -2.55593,-20.927 -0.97023,-6.67521 -0.96157,-13.4477 -2.05916,-20.1074 -0.45326,-3.88085 -0.31772,-7.77701 -1.11676,-11.6261 -0.62092,-3.77001 -0.77552,-7.56411 -1.59054,-11.3028 -0.32501,-3.15887 -0.3409,-6.2647 -0.97191,-9.39207 -0.72113,-5.1725 -1.20724,-10.3533 -2.25382,-15.4714 -0.61317,-4.04142 -1.31821,-8.10172 -2.96495,-11.873 -3.3059,-7.59977 -5.35527,-15.9763 -10.7464,-22.4975 -4.25404,-5.3292 -8.51097,-10.7922 -14.0958,-14.8217 -3.6026,-2.82764 -7.56838,-5.27188 -11.9005,-6.61396 -5.36057,-1.72252 -10.7439,-3.67781 -16.3768,-3.94432 -7.18547,-0.627157 -14.5776,-0.276954 -21.42,2.12578 -5.73251,1.89778 -11.214,4.90243 -15.2204,9.49487 -4.30404,4.86891 -8.19639,10.134 -11.7132,15.6193 -4.13086,6.54999 -7.1883,13.7676 -9.01338,21.3011 -1.35119,5.04012 -3.83657,9.74828 -4.4899,14.9735 -0.51562,4.20723 -1.7759,8.25612 -2.59516,12.4011 -1.6522,9.17731 -1.40746,18.6176 -1.80241,27.9267 -0.40293,13.5776 -0.47272,27.1837 -1.64644,40.7233 -0.61505,5.54049 -1.83681,11.3412 -5.64513,15.6332 -2.11112,2.68585 -5.15518,4.75316 -8.64233,4.94861 -4.14539,0.31195 -8.81849,-0.38946 -11.7092,-3.68222 -4.62555,-4.90585 -6.57201,-11.6948 -6.96434,-18.2968 -0.31698,-6.47341 -0.8461,-12.9234 -1.0437,-19.4044 -0.28919,-16.6662 0.46418,-33.4449 -2.57894,-49.9006 -1.429,-7.2967 -3.34688,-14.5444 -5.43444,-21.6984 -2.50277,-7.80839 -4.44602,-15.9972 -9.17712,-22.846 -4.60227,-7.11788 -9.12933,-14.4552 -15.4351,-20.1902 -3.47286,-3.22146 -7.76465,-5.29318 -12.2489,-6.68393 -4.42459,-1.51535 -8.94198,-2.70919 -13.5818,-2.83373 z m -2.89957,17.0249 c 7.5183,-0.08549 15.4726,0.702863 21.8746,5.00941 8.95245,5.50172 15.9319,14.027 19.7161,23.8261 3.26648,7.42981 5.2718,15.3107 7.6332,23.0522 1.6295,6.0982 2.11235,12.426803 3.11,18.644403 1.74784,12.5324 2.94309,25.1449 3.58291,37.7817 0.23195,7.79267 -0.76989,15.5652 -1.88484,23.2607 -0.76745,4.29202 -4.47813,7.68683 -8.75506,8.29004 -3.79792,0.6801 -7.22462,-1.80273 -9.9053,-4.19158 -5.56027,-5.39696 -8.62632,-12.6964 -12.1068,-19.4813 -5.09403,-10.3024 -9.9213,-21.139 -18.1718,-29.3549 -3.63677,-3.43303 -7.96903,-6.76932 -13.0636,-7.33272 -6.86819,-0.84423 -14.2907,-0.0711 -20.144,3.95149 -8.69724,5.65012 -14.2161,14.7972 -20.0918,23.1114 -2.62307,3.65701 -5.1976,7.39069 -8.22737,10.7195 -1.54972,1.29512 -4.16244,-0.0155 -3.91572,-2.07159 -0.713369,-9.09436 1.35202,-18.0872 2.21493,-27.0954 1.76495,-14.0986 3.09413,-28.449703 7.86084,-41.928903 3.49091,-9.48312 6.36149,-19.3403 11.5483,-28.0902 3.59711,-5.62788 8.74484,-10.3502 14.7841,-13.2324 5.62359,-2.49785 11.7292,-3.71755 17.7872,-4.59579 2.04402,-0.211019 4.10038,-0.267439 6.15413,-0.272165 z m 159.732,0.206776 c 7.36902,-0.03481 14.7383,1.65567 21.5406,4.48412 9.27091,3.85494 15.7882,12.3122 19.6542,21.3536 3.10271,7.25627 5.86714,14.659 8.3793,22.1356 2.38633,7.1021 3.33351,14.577897 4.819,21.903697 1.56186,7.70249 2.10413,15.5565 2.88383,23.3655 0.61505,6.15991 2.15439,12.2477 2.21847,18.449 0.021,2.03171 -0.47529,4.44737 -2.059,5.77318 -1.45492,1.21797 -3.28167,-0.78061 -4.24869,-1.9952 -4.79219,-6.01911 -9.00665,-12.459 -13.4527,-18.7157 -5.13295,-7.22332 -11.5469,-14.2519 -20.3141,-16.7976 -5.70521,-1.65657 -12.3306,-1.84923 -17.8845,0.65919 -5.37714,2.4286 -9.61624,6.89747 -13.2418,11.4812 -7.11147,8.99108 -10.9871,19.953 -16.3459,29.9954 -2.94496,5.51881 -6.19308,11.1898 -11.3043,14.9761 -2.89827,2.14697 -4.65725,2.71356 -6.5569,2.74101 -4.28407,0.0619 -7.81153,-2.17634 -9.08351,-6.34156 -2.06018,-6.74621 -1.69034,-13.8444 -1.9725,-20.7748 -0.62627,-15.3832 0.5713,-30.8265 3.33785,-45.9769 1.11634,-6.113297 1.83173,-12.328797 3.48168,-18.322497 1.27943,-4.64776 2.94222,-9.1445 4.42307,-13.7246 2.08515,-6.4492 5.18332,-12.6284 9.16705,-18.1291 5.77649,-7.97604 14.356,-14.4583 24.2331,-16.066 4.06203,-0.661189 8.22125,-0.454298 12.3258,-0.473687 z m -173.528,89.568197 c 5.75986,-0.003 11.382,2.7146 15.0772,7.12297 4.39054,4.83991 8.04822,10.315 11.3635,15.9323 2.8252,5.02992 4.54423,10.5701 5.91896,16.1445 0.80605,2.73417 2.23424,5.71054 1.33939,8.58474 -0.95314,0.8309 -2.30911,-0.13701 -3.42953,0.10816 -5.78857,-0.32912 -11.5178,-1.13396 -17.3173,-1.22583 -8.20318,-0.57004 -16.4113,-0.70608 -24.6379,-0.54684 -9.52385,0.0333 -19.05,0.31248 -28.5695,0.40943 -1.16359,0.0484 -2.10795,-1.00202 -1.71464,-2.15947 0.569275,-3.55709 3.80001,-5.79679 5.1101,-9.03728 4.43835,-8.51839 9.51555,-16.8353 16.398,-23.617 4.88332,-5.10538 10.5732,-10.1728 17.7496,-11.4668 0.895396,-0.15599 1.80313,-0.24197 2.71212,-0.24882 z m 184.712,1.12348 c 1.94948,0.7794 4.4604,1.33623 6.62382,2.01025 3.95629,1.29468 8.24663,2.27392 11.5276,4.9775 3.75835,3.56422 6.83283,7.75542 10.1817,11.6852 3.65624,4.92707 6.52536,10.3765 9.72051,15.6015 1.38681,2.72205 3.00499,5.33819 4.29494,8.10078 0.55356,1.21541 0.0959,2.94358 -1.42074,3.08297 -2.27047,0.43619 -4.5656,-0.36167 -6.85896,-0.11518 -14.5522,-0.16235 -29.1117,-1.00139 -43.6593,-0.25393 -5.87208,0.11218 -11.6942,0.83101 -17.5158,1.64145 -1.8439,0.16304 -3.70577,0.18224 -5.5419,0.26723 -1.27259,-0.40477 -0.62449,-2.1411 -0.63917,-3.12085 0.60728,-3.57925 2.29284,-6.8431 2.99314,-10.3714 2.57792,-9.22164 7.93628,-17.3355 13.705,-24.8522 2.28863,-2.66425 4.70529,-5.48243 7.92814,-7.01341 2.74071,-0.96728 5.68119,-1.4706 8.5506,-1.67011 z m -194.34,49.6841 c 12.814,-0.0588 25.4158,2.53797 37.9909,4.62424 5.59796,0.69769 11.1336,1.78831 16.7295,2.49448 7.49055,1.49405 14.9956,2.99367 22.5605,3.95423 1.21084,0.44447 3.01485,1.03288 3.1642,2.52505 -0.38638,1.23388 -2.04743,1.36916 -3.11417,1.68351 -5.402,0.76162 -10.1934,-2.6222 -15.3991,-3.1734 -4.85533,-0.61245 -9.81128,-0.73532 -14.6402,-1.64872 -6.96699,-1.14206 -14.0313,-1.22004 -21.0139,-2.32999 -3.24684,-0.31508 -6.3097,-1.55952 -9.55752,-1.41028 -5.50277,-0.46612 -10.874,-1.83102 -16.3905,-2.08717 -6.80127,-0.52869 -13.6412,-1.28315 -20.4457,-1.28956 -3.8876,0.20839 -7.77512,0.47538 -11.6613,0.72026 -1.182,0.13598 -2.80344,0.53559 -3.68138,-0.49819 -0.08468,-1.18206 1.6497,-0.86166 2.36224,-1.21859 5.89636,-1.46774 11.9588,-2.06042 18.0247,-2.11432 5.02239,-0.1515 10.0473,-0.20479 15.0717,-0.23155 z m 228.452,0.17294 c 3.8491,0.12353 7.76904,1.6065 11.3878,2.84889 0.89146,0.30605 0.17505,1.43861 -0.65651,1.40157 -4.66896,-0.20792 -9.29127,-0.71224 -13.9643,-0.72434 -3.04688,-0.008 -6.09593,-0.1105 -9.13984,0.025 l -6.71224,0.29891 c -9.23348,0.41119 -18.3644,1.95625 -27.5475,3.05414 -5.84355,0.69864 -11.6742,1.75755 -17.5399,2.37173 -5.24616,0.5493 -10.4348,1.53005 -15.6747,2.15095 -6.6443,0.78731 -13.148,2.28869 -19.6775,3.74919 -1.54864,0.34639 -4.16421,0.32132 -4.56799,-1.49966 -0.37795,-1.7046 1.95129,-2.71358 3.43841,-2.91372 4.40174,-0.5924 8.77923,-1.42671 13.1654,-2.05025 7.63502,-1.08541 15.2202,-2.52569 22.7781,-4.05776 11.5348,-2.33823 22.648,-3.79396 34.362,-4.73999 2.61373,-0.21109 6.75476,-0.13696 9.40957,-0.11038 1.70333,0.0171 17.3087,0.0791 20.9391,0.19567 z m -241.658,8.31042 c 8.86372,0.12729 17.5858,1.93314 26.355,3.04227 6.52233,0.95123 13.0459,2.29033 19.5077,3.33511 2.12276,0.21198 4.94486,0.12884 6.17704,2.22613 0.19694,1.5681 -1.8489,2.04518 -2.36478,3.35004 -4.95827,7.08761 -10.9179,14.19 -19.2402,17.3144 -5.83094,1.80403 -12.4662,1.48232 -17.8627,-1.51104 -9.28567,-5.08261 -16.0689,-13.4737 -22.8468,-21.3821 -1.33104,-1.31981 -3.65826,-2.888 -2.93392,-5.07091 0.908642,-1.60646 3.15033,-0.90641 4.63159,-1.02369 2.84694,-0.34644 5.71516,-0.27193 8.57701,-0.28023 z m 225.112,0.10446 c 6.27568,0.26263 12.6413,-0.41624 18.8479,0.72988 1.15489,0.42758 0.7195,1.88537 -0.12087,2.40149 -6.93093,8.12157 -13.3041,17.1148 -22.5375,22.8222 -5.55548,3.60957 -12.5672,5.59301 -19.0812,3.63709 -7.37087,-2.05298 -13.1147,-7.62263 -17.5243,-13.6548 -1.83863,-2.48362 -3.87809,-4.91406 -5.24605,-7.68262 0.0729,-1.39339 1.94238,-1.06574 2.87217,-1.43964 7.76791,-1.57288 15.7754,-1.93913 23.3788,-4.17984 6.13936,-1.35545 12.4216,-1.94559 18.6564,-2.61138 0.25133,-0.0146 0.50308,-0.0164 0.75468,-0.0224 z m 60.8686,14.1716 c 2.64827,0.53011 4.70474,2.60444 6.53199,4.46969 5.00143,6.2513 7.6096,14.5508 6.30639,22.531 -0.69151,5.44756 -1.28462,11.0583 -3.53997,16.1226 -2.04217,4.41673 -6.4961,7.95236 -11.5228,7.73013 -3.7204,0.0527 -7.20953,-2.00154 -9.23946,-5.07388 -3.89848,-5.52725 -4.54681,-12.4931 -5.63276,-18.975 -0.93917,-5.7909 0.15748,-11.7724 2.73832,-17.0087 1.38231,-2.59935 2.78736,-5.38625 5.12564,-7.25551 2.28327,-1.60497 5.33757,-1.59141 7.91033,-1.56631 0.0997,-0.63049 0.70148,-1.03951 1.32234,-0.97403 z m -336.479,0.87382 c 4.37549,0.019 7.66396,3.70168 9.38644,7.40023 2.34622,4.26707 3.81293,9.099 3.45276,14.009 -0.141054,6.38337 -0.571837,12.946 -2.92077,18.947 -1.23641,2.68995 -3.07912,5.0917 -5.09811,7.2397 -2.66176,2.44355 -6.70099,2.69225 -10.0724,1.90854 -5.18306,-1.31462 -8.40013,-6.33945 -9.61216,-11.2654 -1.78474,-7.74366 -2.3587,-15.8152 -1.47681,-23.7189 0.913441,-5.24515 3.84552,-10.2031 8.16479,-13.3369 2.47454,-1.50722 5.43874,-0.98384 8.17624,-1.18334 z"
       fill="#000000"
       fill-opacity="0.964497"
       style="paint-order:normal" />
  </g>
</svg>
